<?xml version="1.0" encoding="UTF-8" standalone="no"?>
<!-- Created with Inkscape (http://www.inkscape.org/) -->

<svg
   width="210mm"
   height="297mm"
   viewBox="0 0 210 297"
   version="1.1"
   id="svg1"
   xml:space="preserve"
   inkscape:version="1.3 (0e150ed6c4, 2023-07-21)"
   sodipodi:docname="Fr채ser 2.svg"
   xmlns:inkscape="http://www.inkscape.org/namespaces/inkscape"
   xmlns:sodipodi="http://sodipodi.sourceforge.net/DTD/sodipodi-0.dtd"
   xmlns="http://www.w3.org/2000/svg"
   xmlns:svg="http://www.w3.org/2000/svg"><sodipodi:namedview
     id="namedview1"
     pagecolor="#ffffff"
     bordercolor="#000000"
     borderopacity="0.25"
     inkscape:showpageshadow="2"
     inkscape:pageopacity="0.0"
     inkscape:pagecheckerboard="0"
     inkscape:deskcolor="#d1d1d1"
     inkscape:document-units="mm"
     inkscape:zoom="2.8970539"
     inkscape:cx="35.55336"
     inkscape:cy="192.78206"
     inkscape:window-width="1920"
     inkscape:window-height="1009"
     inkscape:window-x="-8"
     inkscape:window-y="-8"
     inkscape:window-maximized="1"
     inkscape:current-layer="layer1" /><defs
     id="defs1"><inkscape:path-effect
       effect="spiro"
       id="path-effect4"
       is_visible="true"
       lpeversion="1" /><inkscape:path-effect
       effect="spiro"
       id="path-effect3"
       is_visible="true"
       lpeversion="1" /><inkscape:path-effect
       effect="spiro"
       id="path-effect2"
       is_visible="true"
       lpeversion="1" /></defs><g
     inkscape:label="Ebene 1"
     inkscape:groupmode="layer"
     id="layer1"><path
       style="fill:#000000;stroke-width:1"
       d="m 19.86394,86.231672 c 0,0 -0.08705,-9.782891 0.0084,-9.969395 0.04851,-0.0946 2.228282,-0.150852 5.840777,-0.150852 l 6.521233,-0.04609 0.222913,5.760056 15.241933,0.07726 -0.04799,4.333514 v 0 c -9.208823,0.002 -27.787615,-0.004 -27.787615,-0.004 z m 0,0 c -34.370844,-171.954853 -34.370844,-171.954853 0,0 z m 27.103663,-2.205582 0.0377,-1.119634 h -7.610414 c -5.748233,0 -7.64808,-0.04539 -7.764314,-0.185315 -0.107823,-0.129853 -0.15389,-0.984939 -0.15389,-2.857007 v -2.671683 h -5.450324 -5.450324 v 3.912295 c 0,2.151754 0.03875,3.958941 0.08611,4.015966 0.04736,0.05709 5.976984,0.08603 13.176961,0.06435 l 13.090865,-0.03933 z"
       id="path1-5"
       inkscape:export-filename="Fr채ser.svg"
       inkscape:export-xdpi="96"
       inkscape:export-ydpi="96"
       sodipodi:nodetypes="ssscccccssccccssscccssscc" /><path
       style="fill:#000000;stroke-width:1"
       d="m 11.648386,91.921623 c -0.165226,-0.19073 -0.05645,-3.40151 -0.05645,-3.40151 l 47.94025,0.0733 v 3.38568 l -23.882263,0.0401 c -13.464021,0.0226 -23.934303,-0.02 -24.00155,-0.0976 z m 46.627203,-1.6353 -0.06778,-0.66928 h -22.6267 -22.626602 l -0.06789,0.66928 -0.06789,0.66925 h 22.762361 22.76237 z m -22.601661,-1.73148 c -118.82534,-175.963874 -118.82534,-175.963874 0,0 z"
       id="path1-5-0"
       inkscape:export-filename="Fr채ser.svg"
       inkscape:export-xdpi="96"
       inkscape:export-ydpi="96"
       sodipodi:nodetypes="scccsssccccccccccc" /><path
       style="fill:#000000;stroke-width:1"
       d="m 31.92569,72.901172 -0.114161,-8.94638 v -3.21553 h -1.746406 c -1.195479,0 -1.792635,-0.058 -1.892955,-0.18374 -0.189372,-0.23743 -0.207602,-6.73689 -0.02013,-7.17608 0.09893,-0.23177 0.258282,-0.29618 0.732756,-0.29618 h 0.606334 v -1.30152 -1.30153 h -0.789523 c -1.051402,0 -1.069389,-0.0502 -1.035527,-2.88434 0.01475,-1.23485 0.01925,-3.33042 0.01,-4.65683 l -0.01684,-2.41163 h -2.601286 c -1.860388,0 -2.643027,-0.0523 -2.747838,-0.18375 -0.105916,-0.1328 -0.146551,-1.21197 -0.146551,-3.89204 0,-2.03956 0.03336,-3.81729 0.07413,-3.9505 0.06686,-0.21846 1.190833,-0.2422 11.466786,-0.2422 10.27596,0 11.39993,0.0237 11.46679,0.2422 0.0407,0.13321 0.0741,1.91094 0.0741,3.9505 0,2.68007 -0.0406,3.75924 -0.14655,3.89204 -0.10502,0.13167 -0.90064,0.18375 -2.80721,0.18375 h -2.66065 l -0.0322,4.93812 -0.0322,4.93812 -0.82436,0.0453 -0.82435,0.0453 v 1.28652 1.28652 l 0.64117,0.0463 0.64115,0.0463 v 3.75144 3.75145 l -1.80135,0.0423 -1.80136,0.0423 v 6.04267 6.04266 l -0.85513,0.003 z m 2.084099,4.29851 -10e-6,1.30152 z m 0.73254,-5.66544 c 0.405168,-0.59014 -0.04,-1.30153 -0.0889,-1.30153 -0.11985,0 -1.98725,2.33476 -1.98725,2.48461 z m 0,-4.20405 v -1.30151 l -1.03807,1.29475 -1.03807,1.29476 v 1.30153 1.30152 l 1.03807,-1.29477 1.03807,-1.29476 z m -0.94917,-1.49609 0.94917,-1.18308 v -1.30174 -1.30174 l -1.03807,1.29477 -1.03807,1.29476 v 1.19007 c 0,0.65453 0.04,1.19005 0.0889,1.19005 0.0489,0 0.51602,-0.53239 1.03807,-1.18309 z m -0.39709,-3.5317 c 0.33744,-0.40352 0.61351,-0.78249 0.61351,-0.84216 0,-0.0596 -0.30226,-0.10849 -0.67169,-0.10849 h -0.6717 v 0.84215 c 0,0.46319 0.0262,0.84217 0.0582,0.84217 0.0319,0 0.33427,-0.33015 0.67169,-0.73367 z m -2.657227,-4.41778 c 0.02947,-1.52687 0.06612,-1.80714 0.255278,-1.95229 0.363822,-0.27915 0.592759,0.2709 0.566759,1.36173 -0.0121,0.50529 -0.0156,1.24602 -0.008,1.64604 l 0.014,0.72732 h 0.85488 0.85488 v -1.74213 c 0,-1.40275 0.0377,-1.78135 0.19343,-1.9434 0.14019,-0.14588 0.24943,-0.15707 0.39691,-0.0406 0.16736,0.13208 0.20959,0.47712 0.23789,1.9434 l 0.0344,1.7828 h 0.851 0.85101 v -1.65505 c 0,-1.83861 0.15486,-2.40082 0.57295,-2.08004 0.18916,0.14515 0.22581,0.42543 0.25528,1.95229 l 0.0344,1.7828 h 0.91208 0.91207 v -2.75616 -2.75616 h -4.82394 -4.823975 v 2.75616 2.75616 h 0.912071 0.91207 z m 6.323897,-6.42454 v -0.97987 h -3.35847 -3.358461 v 0.99246 0.99246 l 2.830061,0.041 c 1.55654,0.0226 3.06785,0.0169 3.35847,-0.0126 l 0.5284,-0.0537 z m 1.70977,-6.49219 v -4.44048 h -5.12929 -5.129303 v 4.44048 4.44048 h 5.129303 5.12929 z m 5.6178,-8.57473 v -3.0624 H 33.704469 23.01844 v 3.0624 3.0624 h 10.686029 10.68604 z"
       id="path1-2"
       inkscape:export-filename="Fr채ser.svg"
       inkscape:export-xdpi="96"
       inkscape:export-ydpi="96"
       sodipodi:nodetypes="cccsssscccssscssssssssscccccccccccccccccccccscccccccccccscccccssssssscsssccssccccsscscccsssccccccccccccccccccccccccccccccccccccccc" /><path
       style="fill:#ff0000;fill-opacity:1;stroke:#f10000;stroke-width:0.565;stroke-linecap:round;stroke-miterlimit:1.9;stroke-dasharray:2.26, 1.13, 0.565, 1.13;stroke-dashoffset:0.452;stroke-opacity:1"
       d="M 21.737215,266.87523 V 255.54435"
       id="path2"
       inkscape:path-effect="#path-effect2"
       inkscape:original-d="m 21.737215,266.87523 c 0,-3.77696 0,-7.55392 0,-11.33088"
       transform="translate(10.074314,-206.13598)" /><path
       style="fill:#ff0000;fill-opacity:1;stroke:#f10000;stroke-width:0.565;stroke-linecap:round;stroke-miterlimit:1.9;stroke-dasharray:2.26, 1.13, 0.565, 1.13;stroke-dashoffset:0.452;stroke-opacity:1"
       d="m 25.523145,266.88335 v -11.339"
       id="path3"
       inkscape:path-effect="#path-effect3"
       inkscape:original-d="m 25.523145,266.88335 c 0,-3.77966 0,-7.55933 0,-11.339"
       transform="translate(10.074314,-206.13598)" /><path
       style="fill:#ff0000;fill-opacity:1;stroke:#f10000;stroke-width:0.565;stroke-linecap:round;stroke-miterlimit:1.9;stroke-dasharray:2.26, 1.13, 0.565, 1.13;stroke-dashoffset:0.452;stroke-opacity:1"
       d="m 21.737215,255.54435 h 3.78593"
       id="path4"
       inkscape:path-effect="#path-effect4"
       inkscape:original-d="m 21.737215,255.54435 c 1.261976,0 2.523953,0 3.78593,0"
       transform="translate(10.074314,-206.13598)" /><rect
       style="fill:none;fill-rule:evenodd;stroke-width:1.765;stroke-dasharray:none"
       id="rect7"
       width="62.593384"
       height="3.2245095"
       x="2.172092"
       y="86.277328"
       ry="1"
       rx="1" /><rect
       style="fill:none;fill-opacity:1;stroke:#0c0004;stroke-width:0.765;stroke-linecap:round;stroke-miterlimit:1.9;stroke-dasharray:3.05999994, 1.52999997, 0.76499999, 1.52999997;stroke-dashoffset:0.38249999;stroke-opacity:1"
       id="rect8"
       width="32.805214"
       height="2.2427845"
       x="17.238529"
       y="86.277328"
       rx="0.99999994"
       ry="1" /></g></svg>
